<?xml version="1.0" encoding="UTF-8"?>
<svg id="_图层_1" data-name="图层_1" xmlns="http://www.w3.org/2000/svg" version="1.1" viewBox="0 0 200 200">
  <!-- Generator: Adobe Illustrator 29.3.1, SVG Export Plug-In . SVG Version: 2.1.0 Build 151)  -->
  <defs>
    <style>
      .st0 {
        fill: #006239;
      }
    </style>
  </defs>
  <path class="st0" d="M164,40.2c-18.1-19.4-43.8-29.5-70.4-27.6-2.5.2-4.4,2.4-4.2,4.9s2.4,4.4,4.9,4.2c23.8-1.7,46.8,7.3,63,24.7,29.5,31.6,27.8,81.4-3.8,110.9-15.3,14.3-35.3,21.8-56.2,21.1-21-.7-40.4-9.6-54.7-24.9-22-23.5-27.2-57.9-13.7-86.8,2.7,1.1,5.6,1.6,8.6,1.6,7.1,0,13.8-3.2,18.3-8.7l2.3-2.9c1.3-1.6,1.9-3.7,1.7-5.8-.2-2.1-1.2-4-2.9-5.3l-1-.8,9.5-11.9c1.6-2,1.2-4.8-.7-6.4-1-.8-2.1-1.1-3.3-1-1.2.1-2.3.7-3.1,1.7l-9.5,11.9-8-6.4,9.5-11.9c1.6-2,1.2-4.8-.7-6.4-1-.8-2.1-1.1-3.3-1-1.2.1-2.3.7-3.1,1.7l-9.5,11.9-1-.8c-1.6-1.3-3.7-1.9-5.8-1.7-2.1.2-4,1.2-5.3,2.9l-2.3,2.9c-7.6,9.4-6.6,23,1.9,31.3-15.8,32.5-10.1,71.5,14.8,98,16,17.1,37.6,27,61,27.8,1,0,2.1,0,3.1,0,22.2,0,43.4-8.4,59.7-23.6,17.1-16,27-37.6,27.8-61,.8-23.4-7.5-45.7-23.5-62.8h0ZM28,34.1l18.6,15,3.6,2.9-1.5,1.9c-4.7,5.8-13,7-19.1,2.9,0,0,0,0,0,0-.3-.2-.6-.4-.8-.6-6.1-4.9-7.1-13.9-2.2-20.1l1.5-1.9h0s0,0,0,0Z"/>
  <g>
    <path class="st0" d="M144.1,52v.9c0,2.5-2,4.5-4.5,4.5s-.2,0-.3,0h-1.3c0,0-.2,0-.3,0s-.2,0-.3,0h-16.5c-.7,0-1.4.5-1.6,1.2l-5.4,16.2c-.1.5,0,1,.1,1.4,0,0,0,0,0,0,.3.5.9.8,1.5.8h5.1c1.3,0,2.3,1.1,2.3,2.3v11.8c0,.3.1.7.3.9,5.6,8.3,9.6,24.5,9.6,30.9s-7.5,23-16.4,23h-1.6c-1,0-1.8-.9-1.7-1.9,0-.3,0-.6,0-.9v-14.1c0-5.2-3.9-9.4-8.8-9.4h-8.6c-4.9,0-8.8,4.2-8.8,9.4v14.1c0,.3,0,.6,0,.9.1,1-.7,1.9-1.7,1.9h-1.6c-8.9,0-16.4-14.1-16.4-23s4-22.6,9.6-30.9c.2-.3.3-.6.3-.9v-11.8c0-1.3,1-2.3,2.3-2.3h5.2c.6,0,1.2-.3,1.4-.9,0,0,0,0,0,0,.2-.4.3-.9.2-1.4l-5.4-16.2c-.2-.7-.9-1.2-1.6-1.2l3.6-9.9c.7,0,1.4.7,1.6,1.4l5.4,14c.2.6.9,1.1,1.6,1.1h17.2c.7,0,1.3-.4,1.6-1.1l5.4-14c.2-.6.9-1.1,1.6-1.1l20.2-.2c.1,0,.2,0,.4,0s.2,0,.3,0h1.2c.1,0,.3,0,.4,0,2.5,0,4.5,2,4.5,4.5ZM112,84c0-6.6-5.3-12-12-12.1-6.6,0-12,5.4-12,12.1s5.3,12,12,12c6.6,0,12-5.4,12-12Z"/>
    <path class="st0" d="M109.8,131.4v12.6c0,.7-.1,1.4-.3,2.1-.2.7-.5,1.3-.9,1.9-.1.2-.2.4-.3.5-.1.2-.3.4-.5.6-.2.2-.4.4-.6.6-.2.1-.3.3-.5.4-.3.2-.6.4-.9.6-.2,0-.3.2-.5.3-.4.2-.8.4-1.1.6-.1,0-.3.1-.4.1-.5.2-1,.3-1.5.4,0,0-.2,0-.2,0-.6.1-1.2.2-1.8.2,0,0-.1,0-.2,0s-.1,0-.2,0c-.6,0-1.2,0-1.8-.2,0,0-.2,0-.2,0-.5-.1-1-.2-1.5-.4-.1,0-.3-.1-.4-.1-.4-.2-.8-.4-1.2-.6-.2,0-.3-.2-.5-.3-.3-.2-.6-.4-.9-.6-.2-.1-.3-.3-.5-.4-.2-.2-.4-.4-.6-.6-.2-.2-.3-.4-.5-.6-.1-.2-.2-.3-.3-.5-.4-.6-.7-1.2-.9-1.9-.2-.7-.3-1.4-.3-2.1v-12.6c0-4.6,4.4-8.4,9.8-8.4,5.4,0,9.8,3.8,9.8,8.4Z"/>
    <polygon class="st0" points="82.8 47.5 79.2 57.4 66.5 57.4 66.5 47.5 82.8 47.5"/>
    <path class="st0" d="M66.5,47.5v9.9c-2.5,0-4.5-2-4.5-4.5v-.9c0-2.5,2-4.5,4.5-4.5Z"/>
  </g>
</svg>